<?xml version="1.0" encoding="UTF-8"?>
<svg id="Capa_2" xmlns="http://www.w3.org/2000/svg" version="1.1" viewBox="0 0 1375 1375">
  <!-- Generator: Adobe Illustrator 29.8.2, SVG Export Plug-In . SVG Version: 2.1.1 Build 3)  -->
  <defs>
    <style>
      .st0 {
        fill: #fff;
      }

      .st1 {
        fill: #410000;
      }
    </style>
  </defs>
  <rect class="st1" width="1372.74" height="1377.83" rx="178.43" ry="178.43"/>
  <g>
    <path class="st0" d="M512.59,1198.1c-16.07-13.18-11.62-29.32,3.26-40.61,43.68-33.12,110.29-24.85,160.69-39.65-4.57-125.82,3.43-251.62,7.99-377.24-3.01-28.26-91.03-58.4-115.8-72.58-63.59-36.4-98.77-76.73-97.91-153.93,20.41-118.48,57.32-233.6,85.59-350.24,59.69-38.18,153.95-41.93,222.24-27.69,14.61,3.04,57.2,14.68,67.73,22.54,21.92,16.36,14.41,28.06,18.62,47.61,9.28,43.09,13.93,87.28,22.43,129.6,17.97,89.51,80.12,243.85-1.2,315.08-48.67,42.64-115.3,45.46-164.95,85.31l-1.45,378.85c2.1,4.29,79.34,12.21,93.59,15.69,30.28,7.39,118.4,33.3,62.93,73.6-58.88,42.78-268.82,38.45-335.8,8.35-3.88-1.74-26.37-13.36-27.98-14.68ZM563.55,171.3c.32,7.87,7.8,11.2,13.79,14.42,52.75,28.42,210.9,29.63,262.15.19,4.58-2.63,8.05-6.31,10.49-10.97-85.3-45.66-199.79-44.41-286.43-3.64ZM853.04,189.48c-84.73,45.05-207.61,38.76-294.34.11-9.93,91.88-48.63,180.9-66.22,270.54-2.27,11.56-13.29,67.74-5.73,73.36,69.57-35.85,160.48-44.33,238.61-43.53,65.61.67,132.44,15.52,190.5,45.93l-62.81-346.41ZM705.84,735.13l-12.43,2.51,3,77.33c7.12-4.33,1.16-18.85,3.19-27.63.93-4.03,6.7-4.65,7.97-13.29.8-5.41-.01-37.86-1.72-38.93ZM701.08,900.62c-5.76-13.4-3.15-27.7-4.63-40.71-.54-4.75.74-15.71-6.5-13.24.24,67.71-1.19,135.95-4.28,203.59-.92,20.04-.98,86.3-6.77,99.63-2.54,5.84-7.18,13.52-14.48,13.77l6.43-31.59c-52.55,10.01-111,7.76-155.82,41.04-3.91,9.43,17.57,21.15,24.5,24.9,65.45,35.34,238.95,28.37,308.52,5.74,11.4-3.71,22.99-10.19,30.91-19.34,8.27-22.67-63.52-38.92-79.76-42.85-25.13-6.08-50.89-10.38-76.76-11.48l13.08,31.89c-34.61-9.88-25.45-71.63-26.53-103.55-1.89-55.82.48-112.25-1.39-167.76l-6.52,9.96Z"/>
    <path class="st0" d="M518.31,478.85c-.83,1.09-13.69,1.28-17.64,17.14-5.37-35.4,9.61-76.5,19.63-110.88,8.19-28.13,17.81-59.41,30.65-85.69,2.48,50.16-30.67,107.13-35.4,154.67-.65,6.52,5.96,20.56,2.76,24.76Z"/>
    <path class="st0" d="M558.38,293.55c-11.46,4.58-9.62-2.38-9.12-11.41,1.08-19.76,7.75-52.02,18.64-68.48l-9.52,79.89Z"/>
    <path class="st0" d="M774.93,1153.88c4.58,3.21,1.92,12.28-3.9,17.11-14.43,11.97-60.26,14.85-77.84,6.21,19.29-7.63,41.03-3.02,60.93-10.16,7.06-2.53,18.32-14.91,20.82-13.16Z"/>
    <path class="st0" d="M772.15,154.25c2.57,7.14-8.49,5.98-12.87,5.93-31.42-.32-64.13-1.18-95.6-2.27-7.77-.27-13.98,1.9-13.76-8.79,41.24-3.69,81.41.15,122.24,5.13Z"/>
  </g>
</svg>